<mxfile host="app.diagrams.net" agent="Mozilla/5.0 (Windows NT 10.0; Win64; x64) AppleWebKit/537.36 (KHTML, like Gecko) Chrome/137.0.0.0 Safari/537.36" version="27.1.4">
  <diagram name="Halaman-1" id="bVLyUuUw7Kww1w1kh6-Q">
    <mxGraphModel dx="5903" dy="4418" grid="1" gridSize="10" guides="1" tooltips="1" connect="1" arrows="1" fold="1" page="1" pageScale="1" pageWidth="827" pageHeight="1169" background="#ffffff" math="0" shadow="1">
      <root>
        <mxCell id="0" />
        <mxCell id="1" parent="0" />
        <mxCell id="MeNMdqeQsRxh8a8_Zaiz-1" value="Apoteker" style="swimlane;horizontal=0;whiteSpace=wrap;html=1;" vertex="1" parent="1">
          <mxGeometry x="80" y="-300" width="2410" height="240" as="geometry" />
        </mxCell>
        <mxCell id="MeNMdqeQsRxh8a8_Zaiz-2" value="Membuat Resep" style="rounded=1;whiteSpace=wrap;html=1;" vertex="1" parent="MeNMdqeQsRxh8a8_Zaiz-1">
          <mxGeometry x="1730" y="140" width="120" height="60" as="geometry" />
        </mxCell>
        <mxCell id="MeNMdqeQsRxh8a8_Zaiz-3" value="Menyiapkan obat" style="rounded=1;whiteSpace=wrap;html=1;" vertex="1" parent="MeNMdqeQsRxh8a8_Zaiz-1">
          <mxGeometry x="2000" y="20" width="120" height="60" as="geometry" />
        </mxCell>
        <mxCell id="MeNMdqeQsRxh8a8_Zaiz-4" value="sistem" style="swimlane;horizontal=0;whiteSpace=wrap;html=1;" vertex="1" parent="1">
          <mxGeometry x="80" y="-60" width="2410" height="200" as="geometry" />
        </mxCell>
        <mxCell id="MeNMdqeQsRxh8a8_Zaiz-5" style="edgeStyle=orthogonalEdgeStyle;rounded=0;orthogonalLoop=1;jettySize=auto;html=1;exitX=1;exitY=0.5;exitDx=0;exitDy=0;entryX=0;entryY=0.5;entryDx=0;entryDy=0;" edge="1" parent="MeNMdqeQsRxh8a8_Zaiz-4" source="MeNMdqeQsRxh8a8_Zaiz-7" target="MeNMdqeQsRxh8a8_Zaiz-9">
          <mxGeometry relative="1" as="geometry" />
        </mxCell>
        <mxCell id="MeNMdqeQsRxh8a8_Zaiz-6" value="ya" style="edgeLabel;html=1;align=center;verticalAlign=middle;resizable=0;points=[];" vertex="1" connectable="0" parent="MeNMdqeQsRxh8a8_Zaiz-5">
          <mxGeometry x="-0.35" y="9" relative="1" as="geometry">
            <mxPoint as="offset" />
          </mxGeometry>
        </mxCell>
        <mxCell id="MeNMdqeQsRxh8a8_Zaiz-7" value="" style="rhombus;whiteSpace=wrap;html=1;" vertex="1" parent="MeNMdqeQsRxh8a8_Zaiz-4">
          <mxGeometry x="360" y="80" width="80" height="80" as="geometry" />
        </mxCell>
        <mxCell id="MeNMdqeQsRxh8a8_Zaiz-8" style="edgeStyle=orthogonalEdgeStyle;rounded=0;orthogonalLoop=1;jettySize=auto;html=1;exitX=0.5;exitY=1;exitDx=0;exitDy=0;" edge="1" parent="MeNMdqeQsRxh8a8_Zaiz-4" source="MeNMdqeQsRxh8a8_Zaiz-9">
          <mxGeometry relative="1" as="geometry">
            <mxPoint x="550" y="270" as="targetPoint" />
          </mxGeometry>
        </mxCell>
        <mxCell id="MeNMdqeQsRxh8a8_Zaiz-9" value="Menampilkan halaman utama" style="rounded=1;whiteSpace=wrap;html=1;" vertex="1" parent="MeNMdqeQsRxh8a8_Zaiz-4">
          <mxGeometry x="490" y="90" width="120" height="60" as="geometry" />
        </mxCell>
        <mxCell id="MeNMdqeQsRxh8a8_Zaiz-10" style="edgeStyle=orthogonalEdgeStyle;rounded=0;orthogonalLoop=1;jettySize=auto;html=1;exitX=1;exitY=0.5;exitDx=0;exitDy=0;entryX=0;entryY=0.5;entryDx=0;entryDy=0;" edge="1" parent="MeNMdqeQsRxh8a8_Zaiz-4" source="MeNMdqeQsRxh8a8_Zaiz-11" target="MeNMdqeQsRxh8a8_Zaiz-7">
          <mxGeometry relative="1" as="geometry" />
        </mxCell>
        <mxCell id="MeNMdqeQsRxh8a8_Zaiz-11" value="Verifikasi data" style="rounded=1;whiteSpace=wrap;html=1;" vertex="1" parent="MeNMdqeQsRxh8a8_Zaiz-4">
          <mxGeometry x="180" y="90" width="120" height="60" as="geometry" />
        </mxCell>
        <mxCell id="MeNMdqeQsRxh8a8_Zaiz-12" value="" style="rhombus;whiteSpace=wrap;html=1;" vertex="1" parent="MeNMdqeQsRxh8a8_Zaiz-4">
          <mxGeometry x="1960" y="60" width="80" height="80" as="geometry" />
        </mxCell>
        <mxCell id="MeNMdqeQsRxh8a8_Zaiz-13" style="edgeStyle=orthogonalEdgeStyle;rounded=0;orthogonalLoop=1;jettySize=auto;html=1;exitX=1;exitY=0.5;exitDx=0;exitDy=0;entryX=0;entryY=0.5;entryDx=0;entryDy=0;" edge="1" parent="MeNMdqeQsRxh8a8_Zaiz-4" source="MeNMdqeQsRxh8a8_Zaiz-14" target="MeNMdqeQsRxh8a8_Zaiz-12">
          <mxGeometry relative="1" as="geometry" />
        </mxCell>
        <mxCell id="MeNMdqeQsRxh8a8_Zaiz-14" value="Verifikasi resep" style="rounded=1;whiteSpace=wrap;html=1;" vertex="1" parent="MeNMdqeQsRxh8a8_Zaiz-4">
          <mxGeometry x="1730" y="70" width="120" height="60" as="geometry" />
        </mxCell>
        <mxCell id="MeNMdqeQsRxh8a8_Zaiz-15" style="edgeStyle=orthogonalEdgeStyle;rounded=0;orthogonalLoop=1;jettySize=auto;html=1;exitX=1;exitY=0.5;exitDx=0;exitDy=0;entryX=0;entryY=0.5;entryDx=0;entryDy=0;" edge="1" parent="1" source="MeNMdqeQsRxh8a8_Zaiz-18" target="MeNMdqeQsRxh8a8_Zaiz-2">
          <mxGeometry relative="1" as="geometry" />
        </mxCell>
        <mxCell id="MeNMdqeQsRxh8a8_Zaiz-16" value="ya" style="edgeLabel;html=1;align=center;verticalAlign=middle;resizable=0;points=[];" vertex="1" connectable="0" parent="MeNMdqeQsRxh8a8_Zaiz-15">
          <mxGeometry x="0.1125" y="1" relative="1" as="geometry">
            <mxPoint y="-1" as="offset" />
          </mxGeometry>
        </mxCell>
        <mxCell id="MeNMdqeQsRxh8a8_Zaiz-17" style="edgeStyle=orthogonalEdgeStyle;rounded=0;orthogonalLoop=1;jettySize=auto;html=1;exitX=0.5;exitY=0;exitDx=0;exitDy=0;entryX=0;entryY=0.5;entryDx=0;entryDy=0;" edge="1" parent="1" source="MeNMdqeQsRxh8a8_Zaiz-18" target="MeNMdqeQsRxh8a8_Zaiz-3">
          <mxGeometry relative="1" as="geometry" />
        </mxCell>
        <mxCell id="MeNMdqeQsRxh8a8_Zaiz-18" value="" style="rhombus;whiteSpace=wrap;html=1;" vertex="1" parent="1">
          <mxGeometry x="1590" y="-230" width="80" height="80" as="geometry" />
        </mxCell>
        <mxCell id="MeNMdqeQsRxh8a8_Zaiz-19" style="edgeStyle=orthogonalEdgeStyle;rounded=0;orthogonalLoop=1;jettySize=auto;html=1;exitX=0.5;exitY=0;exitDx=0;exitDy=0;entryX=0.5;entryY=1;entryDx=0;entryDy=0;" edge="1" parent="1" target="MeNMdqeQsRxh8a8_Zaiz-11">
          <mxGeometry relative="1" as="geometry">
            <mxPoint x="320" y="215" as="sourcePoint" />
          </mxGeometry>
        </mxCell>
        <mxCell id="MeNMdqeQsRxh8a8_Zaiz-20" style="edgeStyle=orthogonalEdgeStyle;rounded=0;orthogonalLoop=1;jettySize=auto;html=1;exitX=0.5;exitY=1;exitDx=0;exitDy=0;entryX=1;entryY=0.5;entryDx=0;entryDy=0;" edge="1" parent="1" source="MeNMdqeQsRxh8a8_Zaiz-7">
          <mxGeometry relative="1" as="geometry">
            <mxPoint x="380" y="245" as="targetPoint" />
          </mxGeometry>
        </mxCell>
        <mxCell id="MeNMdqeQsRxh8a8_Zaiz-21" value="Tidak" style="edgeLabel;html=1;align=center;verticalAlign=middle;resizable=0;points=[];" vertex="1" connectable="0" parent="MeNMdqeQsRxh8a8_Zaiz-20">
          <mxGeometry x="-0.5918" relative="1" as="geometry">
            <mxPoint as="offset" />
          </mxGeometry>
        </mxCell>
        <mxCell id="MeNMdqeQsRxh8a8_Zaiz-22" value="pelanggan" style="swimlane;horizontal=0;whiteSpace=wrap;html=1;" vertex="1" parent="1">
          <mxGeometry x="80" y="140" width="2410" height="260" as="geometry" />
        </mxCell>
        <mxCell id="MeNMdqeQsRxh8a8_Zaiz-23" value="" style="ellipse;html=1;shape=startState;fillColor=#000000;strokeColor=#ff0000;" vertex="1" parent="MeNMdqeQsRxh8a8_Zaiz-22">
          <mxGeometry x="70" y="90" width="30" height="30" as="geometry" />
        </mxCell>
        <mxCell id="MeNMdqeQsRxh8a8_Zaiz-24" value="" style="edgeStyle=orthogonalEdgeStyle;html=1;verticalAlign=bottom;endArrow=open;endSize=8;strokeColor=#ff0000;rounded=0;" edge="1" parent="MeNMdqeQsRxh8a8_Zaiz-22" source="MeNMdqeQsRxh8a8_Zaiz-23">
          <mxGeometry relative="1" as="geometry">
            <mxPoint x="180" y="105" as="targetPoint" />
          </mxGeometry>
        </mxCell>
        <mxCell id="MeNMdqeQsRxh8a8_Zaiz-25" value="Masukan Login" style="rounded=1;whiteSpace=wrap;html=1;" vertex="1" parent="MeNMdqeQsRxh8a8_Zaiz-22">
          <mxGeometry x="180" y="75" width="120" height="60" as="geometry" />
        </mxCell>
        <mxCell id="MeNMdqeQsRxh8a8_Zaiz-26" style="edgeStyle=orthogonalEdgeStyle;rounded=0;orthogonalLoop=1;jettySize=auto;html=1;exitX=1;exitY=0.5;exitDx=0;exitDy=0;entryX=0;entryY=0.5;entryDx=0;entryDy=0;" edge="1" parent="MeNMdqeQsRxh8a8_Zaiz-22" source="MeNMdqeQsRxh8a8_Zaiz-27" target="MeNMdqeQsRxh8a8_Zaiz-29">
          <mxGeometry relative="1" as="geometry" />
        </mxCell>
        <mxCell id="MeNMdqeQsRxh8a8_Zaiz-27" value="Memilih Obat" style="rounded=1;whiteSpace=wrap;html=1;" vertex="1" parent="MeNMdqeQsRxh8a8_Zaiz-22">
          <mxGeometry x="490" y="70" width="120" height="60" as="geometry" />
        </mxCell>
        <mxCell id="MeNMdqeQsRxh8a8_Zaiz-28" style="edgeStyle=orthogonalEdgeStyle;rounded=0;orthogonalLoop=1;jettySize=auto;html=1;exitX=1;exitY=0.5;exitDx=0;exitDy=0;entryX=0;entryY=0.5;entryDx=0;entryDy=0;" edge="1" parent="MeNMdqeQsRxh8a8_Zaiz-22" source="MeNMdqeQsRxh8a8_Zaiz-29" target="MeNMdqeQsRxh8a8_Zaiz-31">
          <mxGeometry relative="1" as="geometry" />
        </mxCell>
        <mxCell id="MeNMdqeQsRxh8a8_Zaiz-29" value="Menambah ke keranjang" style="rounded=1;whiteSpace=wrap;html=1;" vertex="1" parent="MeNMdqeQsRxh8a8_Zaiz-22">
          <mxGeometry x="640" y="70" width="120" height="60" as="geometry" />
        </mxCell>
        <mxCell id="MeNMdqeQsRxh8a8_Zaiz-30" style="edgeStyle=orthogonalEdgeStyle;rounded=0;orthogonalLoop=1;jettySize=auto;html=1;exitX=1;exitY=0.5;exitDx=0;exitDy=0;entryX=0;entryY=0.5;entryDx=0;entryDy=0;" edge="1" parent="MeNMdqeQsRxh8a8_Zaiz-22" source="MeNMdqeQsRxh8a8_Zaiz-31" target="MeNMdqeQsRxh8a8_Zaiz-32">
          <mxGeometry relative="1" as="geometry" />
        </mxCell>
        <mxCell id="MeNMdqeQsRxh8a8_Zaiz-31" value="checkout" style="rounded=1;whiteSpace=wrap;html=1;" vertex="1" parent="MeNMdqeQsRxh8a8_Zaiz-22">
          <mxGeometry x="800" y="70" width="120" height="60" as="geometry" />
        </mxCell>
        <mxCell id="MeNMdqeQsRxh8a8_Zaiz-32" value="membayar obat" style="rounded=1;whiteSpace=wrap;html=1;" vertex="1" parent="MeNMdqeQsRxh8a8_Zaiz-22">
          <mxGeometry x="990" y="70" width="120" height="60" as="geometry" />
        </mxCell>
        <mxCell id="MeNMdqeQsRxh8a8_Zaiz-33" value="" style="edgeStyle=orthogonalEdgeStyle;rounded=0;orthogonalLoop=1;jettySize=auto;html=1;exitX=0.5;exitY=0;exitDx=0;exitDy=0;" edge="1" parent="MeNMdqeQsRxh8a8_Zaiz-22" source="MeNMdqeQsRxh8a8_Zaiz-32" target="MeNMdqeQsRxh8a8_Zaiz-34">
          <mxGeometry relative="1" as="geometry">
            <mxPoint x="1090.3333333333335" y="450" as="targetPoint" />
            <mxPoint x="1090" y="550" as="sourcePoint" />
          </mxGeometry>
        </mxCell>
        <mxCell id="MeNMdqeQsRxh8a8_Zaiz-34" value="verifikasi pembayaran" style="rounded=1;whiteSpace=wrap;html=1;" vertex="1" parent="MeNMdqeQsRxh8a8_Zaiz-22">
          <mxGeometry x="990" y="-80" width="120" height="60" as="geometry" />
        </mxCell>
        <mxCell id="MeNMdqeQsRxh8a8_Zaiz-35" style="edgeStyle=orthogonalEdgeStyle;rounded=0;orthogonalLoop=1;jettySize=auto;html=1;exitX=0.5;exitY=1;exitDx=0;exitDy=0;entryX=1;entryY=0.5;entryDx=0;entryDy=0;" edge="1" parent="1" source="MeNMdqeQsRxh8a8_Zaiz-38" target="MeNMdqeQsRxh8a8_Zaiz-32">
          <mxGeometry relative="1" as="geometry" />
        </mxCell>
        <mxCell id="MeNMdqeQsRxh8a8_Zaiz-36" value="tidak" style="edgeLabel;html=1;align=center;verticalAlign=middle;resizable=0;points=[];" vertex="1" connectable="0" parent="MeNMdqeQsRxh8a8_Zaiz-35">
          <mxGeometry x="-0.2545" relative="1" as="geometry">
            <mxPoint as="offset" />
          </mxGeometry>
        </mxCell>
        <mxCell id="MeNMdqeQsRxh8a8_Zaiz-37" style="edgeStyle=orthogonalEdgeStyle;rounded=0;orthogonalLoop=1;jettySize=auto;html=1;exitX=1;exitY=0.5;exitDx=0;exitDy=0;entryX=0;entryY=0.5;entryDx=0;entryDy=0;" edge="1" parent="1" source="MeNMdqeQsRxh8a8_Zaiz-38" target="MeNMdqeQsRxh8a8_Zaiz-41">
          <mxGeometry relative="1" as="geometry" />
        </mxCell>
        <mxCell id="MeNMdqeQsRxh8a8_Zaiz-38" value="" style="rhombus;whiteSpace=wrap;html=1;" vertex="1" parent="1">
          <mxGeometry x="1260" y="50" width="80" height="80" as="geometry" />
        </mxCell>
        <mxCell id="MeNMdqeQsRxh8a8_Zaiz-39" style="edgeStyle=orthogonalEdgeStyle;rounded=0;orthogonalLoop=1;jettySize=auto;html=1;exitX=1;exitY=0.5;exitDx=0;exitDy=0;entryX=0;entryY=0.5;entryDx=0;entryDy=0;" edge="1" parent="1" source="MeNMdqeQsRxh8a8_Zaiz-34" target="MeNMdqeQsRxh8a8_Zaiz-38">
          <mxGeometry relative="1" as="geometry" />
        </mxCell>
        <mxCell id="MeNMdqeQsRxh8a8_Zaiz-40" style="edgeStyle=orthogonalEdgeStyle;rounded=0;orthogonalLoop=1;jettySize=auto;html=1;exitX=1;exitY=0.5;exitDx=0;exitDy=0;entryX=0;entryY=0.5;entryDx=0;entryDy=0;" edge="1" parent="1" source="MeNMdqeQsRxh8a8_Zaiz-41" target="MeNMdqeQsRxh8a8_Zaiz-43">
          <mxGeometry relative="1" as="geometry" />
        </mxCell>
        <mxCell id="MeNMdqeQsRxh8a8_Zaiz-41" value="membuat pesanan" style="rounded=1;whiteSpace=wrap;html=1;" vertex="1" parent="1">
          <mxGeometry x="1400" y="60" width="120" height="60" as="geometry" />
        </mxCell>
        <mxCell id="MeNMdqeQsRxh8a8_Zaiz-42" style="edgeStyle=orthogonalEdgeStyle;rounded=0;orthogonalLoop=1;jettySize=auto;html=1;exitX=0.5;exitY=0;exitDx=0;exitDy=0;entryX=0.5;entryY=1;entryDx=0;entryDy=0;" edge="1" parent="1" source="MeNMdqeQsRxh8a8_Zaiz-43" target="MeNMdqeQsRxh8a8_Zaiz-18">
          <mxGeometry relative="1" as="geometry" />
        </mxCell>
        <mxCell id="MeNMdqeQsRxh8a8_Zaiz-43" value="cek perlu resep" style="rounded=1;whiteSpace=wrap;html=1;" vertex="1" parent="1">
          <mxGeometry x="1570" y="60" width="120" height="60" as="geometry" />
        </mxCell>
        <mxCell id="MeNMdqeQsRxh8a8_Zaiz-44" style="edgeStyle=orthogonalEdgeStyle;rounded=0;orthogonalLoop=1;jettySize=auto;html=1;exitX=1;exitY=0.5;exitDx=0;exitDy=0;entryX=0.5;entryY=0;entryDx=0;entryDy=0;" edge="1" parent="1" source="MeNMdqeQsRxh8a8_Zaiz-3" target="MeNMdqeQsRxh8a8_Zaiz-46">
          <mxGeometry relative="1" as="geometry" />
        </mxCell>
        <mxCell id="MeNMdqeQsRxh8a8_Zaiz-45" style="edgeStyle=orthogonalEdgeStyle;rounded=0;orthogonalLoop=1;jettySize=auto;html=1;exitX=0.5;exitY=1;exitDx=0;exitDy=0;" edge="1" parent="1" source="MeNMdqeQsRxh8a8_Zaiz-46" target="MeNMdqeQsRxh8a8_Zaiz-48">
          <mxGeometry relative="1" as="geometry" />
        </mxCell>
        <mxCell id="MeNMdqeQsRxh8a8_Zaiz-46" value="kirim chat" style="rounded=1;whiteSpace=wrap;html=1;" vertex="1" parent="1">
          <mxGeometry x="2220" y="-140" width="120" height="60" as="geometry" />
        </mxCell>
        <mxCell id="MeNMdqeQsRxh8a8_Zaiz-47" style="edgeStyle=orthogonalEdgeStyle;rounded=0;orthogonalLoop=1;jettySize=auto;html=1;exitX=1;exitY=0.5;exitDx=0;exitDy=0;entryX=0;entryY=0.5;entryDx=0;entryDy=0;" edge="1" parent="1" source="MeNMdqeQsRxh8a8_Zaiz-48" target="MeNMdqeQsRxh8a8_Zaiz-49">
          <mxGeometry relative="1" as="geometry" />
        </mxCell>
        <mxCell id="MeNMdqeQsRxh8a8_Zaiz-48" value="menerima chat" style="rounded=1;whiteSpace=wrap;html=1;" vertex="1" parent="1">
          <mxGeometry x="2220" y="290" width="120" height="60" as="geometry" />
        </mxCell>
        <mxCell id="MeNMdqeQsRxh8a8_Zaiz-49" value="" style="ellipse;html=1;shape=endState;fillColor=#000000;strokeColor=#ff0000;" vertex="1" parent="1">
          <mxGeometry x="2410" y="305" width="30" height="30" as="geometry" />
        </mxCell>
        <mxCell id="MeNMdqeQsRxh8a8_Zaiz-50" style="edgeStyle=orthogonalEdgeStyle;rounded=0;orthogonalLoop=1;jettySize=auto;html=1;exitX=0.5;exitY=1;exitDx=0;exitDy=0;entryX=0.5;entryY=0;entryDx=0;entryDy=0;" edge="1" parent="1" source="MeNMdqeQsRxh8a8_Zaiz-2" target="MeNMdqeQsRxh8a8_Zaiz-14">
          <mxGeometry relative="1" as="geometry" />
        </mxCell>
        <mxCell id="MeNMdqeQsRxh8a8_Zaiz-51" style="edgeStyle=orthogonalEdgeStyle;rounded=0;orthogonalLoop=1;jettySize=auto;html=1;exitX=0.5;exitY=0;exitDx=0;exitDy=0;entryX=1;entryY=0.5;entryDx=0;entryDy=0;" edge="1" parent="1" source="MeNMdqeQsRxh8a8_Zaiz-12" target="MeNMdqeQsRxh8a8_Zaiz-2">
          <mxGeometry relative="1" as="geometry" />
        </mxCell>
        <mxCell id="MeNMdqeQsRxh8a8_Zaiz-52" value="tidak" style="edgeLabel;html=1;align=center;verticalAlign=middle;resizable=0;points=[];" vertex="1" connectable="0" parent="MeNMdqeQsRxh8a8_Zaiz-51">
          <mxGeometry x="-0.6214" relative="1" as="geometry">
            <mxPoint as="offset" />
          </mxGeometry>
        </mxCell>
        <mxCell id="MeNMdqeQsRxh8a8_Zaiz-53" style="edgeStyle=orthogonalEdgeStyle;rounded=0;orthogonalLoop=1;jettySize=auto;html=1;exitX=1;exitY=0.5;exitDx=0;exitDy=0;entryX=0.5;entryY=1;entryDx=0;entryDy=0;" edge="1" parent="1" source="MeNMdqeQsRxh8a8_Zaiz-12" target="MeNMdqeQsRxh8a8_Zaiz-3">
          <mxGeometry relative="1" as="geometry" />
        </mxCell>
        <mxCell id="MeNMdqeQsRxh8a8_Zaiz-54" value="ya" style="edgeLabel;html=1;align=center;verticalAlign=middle;resizable=0;points=[];" vertex="1" connectable="0" parent="MeNMdqeQsRxh8a8_Zaiz-53">
          <mxGeometry x="-0.4017" y="-2" relative="1" as="geometry">
            <mxPoint as="offset" />
          </mxGeometry>
        </mxCell>
      </root>
    </mxGraphModel>
  </diagram>
</mxfile>
